<?xml version="1.0" standalone="no"?><svg xmlns="http://www.w3.org/2000/svg" viewBox="0 0 1440 320"><path fill="#3460FF" fill-opacity="1" d="M0,160L26.7,160C53.3,160,107,160,160,170.7C213.3,181,267,203,320,224C373.3,245,427,267,480,245.3C533.3,224,587,160,640,144C693.3,128,747,160,800,149.3C853.3,139,907,85,960,85.3C1013.3,85,1067,139,1120,154.7C1173.3,171,1227,149,1280,133.3C1333.3,117,1387,107,1413,101.3L1440,96L1440,320L1413.3,320C1386.7,320,1333,320,1280,320C1226.7,320,1173,320,1120,320C1066.7,320,1013,320,960,320C906.7,320,853,320,800,320C746.7,320,693,320,640,320C586.7,320,533,320,480,320C426.7,320,373,320,320,320C266.7,320,213,320,160,320C106.7,320,53,320,27,320L0,320Z"></path></svg>